<?xml version="1.0" encoding="UTF-8" standalone="no" ?>
<!DOCTYPE svg PUBLIC "-//W3C//DTD SVG 1.1//EN" "http://www.w3.org/Graphics/SVG/1.1/DTD/svg11.dtd">
<svg xmlns="http://www.w3.org/2000/svg" xmlns:xlink="http://www.w3.org/1999/xlink" version="1.1" width="640" height="640" viewBox="0 0 640 640" xml:space="preserve">
<desc>Created with Fabric.js 4.6.0</desc>
<defs>
</defs>
<g transform="matrix(1 0 0 1 320 263.99)" id="uL0lUHuqBLZsmwDfo24MO"  >
<path style="stroke: rgb(175,94,88); stroke-width: 0; stroke-dasharray: none; stroke-linecap: butt; stroke-dashoffset: 0; stroke-linejoin: miter; stroke-miterlimit: 4; fill: rgb(205,179,179); fill-rule: nonzero; opacity: 1;" vector-effect="non-scaling-stroke"  transform=" translate(-102.13, -51.06)" d="M 102.12766 0 C 158.50213000000002 0 204.25532 45.75319 204.25532 102.12766 C 204.25532 102.12766 204.25532 102.12766 204.25532 102.12766 L 0 102.12766 C 0 102.12766 0 102.12766 0 102.12766 C 0 45.753190000000004 45.75319 0 102.12766 0 z" stroke-linecap="round" />
</g>
<g transform="matrix(0.24 0 0 -0.24 287.93 332.21)" id="VV5ubbnJZiRgtEN887dv2"  >
<path style="stroke: rgb(175,94,88); stroke-width: 0; stroke-dasharray: none; stroke-linecap: butt; stroke-dashoffset: 0; stroke-linejoin: miter; stroke-miterlimit: 4; fill: rgb(205,179,179); fill-rule: nonzero; opacity: 1;" vector-effect="non-scaling-stroke"  transform=" translate(-102.13, -51.06)" d="M 102.12766 0 C 158.50213000000002 0 204.25532 45.75319 204.25532 102.12766 C 204.25532 102.12766 204.25532 102.12766 204.25532 102.12766 L 0 102.12766 C 0 102.12766 0 102.12766 0 102.12766 C 0 45.753190000000004 45.75319 0 102.12766 0 z" stroke-linecap="round" />
</g>
<g transform="matrix(-1 0 0 -1 371.06 371.06)" id="t6ZOVcC39q9F0PdgZSYQu"  >
<path style="stroke: rgb(175,94,88); stroke-width: 0; stroke-dasharray: none; stroke-linecap: butt; stroke-dashoffset: 0; stroke-linejoin: miter; stroke-miterlimit: 4; fill: rgb(205,179,179); fill-rule: nonzero; opacity: 1;" vector-effect="non-scaling-stroke"  transform=" translate(-51.06, -51.06)" d="M 0 102.12766 C 0 45.753190000000004 45.75319 0 102.12766 0 L 102.12766 102.12766 z" stroke-linecap="round" />
</g>
</svg>